<svg width="20" height="20" viewBox="0 0 20 20" fill="none" xmlns="http://www.w3.org/2000/svg">
<path fill-rule="evenodd" clip-rule="evenodd" d="M10 20C15.5228 20 20 15.5228 20 10C20 4.47715 15.5228 0 10 0C4.47715 0 0 4.47715 0 10C0 15.5228 4.47715 20 10 20ZM6.22585 6.36702C6.57543 5.93946 7.20543 5.87625 7.633 6.22583L10.8707 8.87306C10.8956 8.89339 10.9192 8.91467 10.9416 8.9368C11.2799 9.21331 11.4081 9.69078 11.2247 10.1109L8.91652 15.4C8.69561 15.9062 8.10619 16.1374 7.60001 15.9165C7.09383 15.6956 6.86257 15.1062 7.08347 14.6L9.09055 10.001L6.36705 7.77417C5.93948 7.42459 5.87627 6.79459 6.22585 6.36702Z" fill="#7C7C8A"/>
<path d="M18 9.25C17.5858 9.25 17.25 9.58579 17.25 10C17.25 10.4142 17.5858 10.75 18 10.75V9.25ZM18 10.75H19V9.25H18V10.75Z" fill="#7C7C8A"/>
<path d="M2 10.75C2.41421 10.75 2.75 10.4142 2.75 10C2.75 9.58579 2.41421 9.25 2 9.25L2 10.75ZM2 9.25L1 9.25L1 10.75L2 10.75L2 9.25Z" fill="#7C7C8A"/>
<path d="M9.25 2C9.25 2.41421 9.58579 2.75 10 2.75C10.4142 2.75 10.75 2.41421 10.75 2L9.25 2ZM10.75 2L10.75 1L9.25 1L9.25 2L10.75 2Z" fill="#7C7C8A"/>
<path d="M10.75 18C10.75 17.5858 10.4142 17.25 10 17.25C9.58579 17.25 9.25 17.5858 9.25 18L10.75 18ZM9.25 18L9.25 19L10.75 19L10.75 18L9.25 18Z" fill="#7C7C8A"/>
</svg>
