<svg width="20" height="20" viewBox="0 0 20 20" fill="none" xmlns="http://www.w3.org/2000/svg">
<mask id="path-1-inside-1_480_1933" fill="white">
<path fill-rule="evenodd" clip-rule="evenodd" d="M10 20C15.5228 20 20 15.5228 20 10C20 4.47715 15.5228 0 10 0C4.47715 0 0 4.47715 0 10C0 15.5228 4.47715 20 10 20ZM10 4L5.66987 11.5H9.25V14.8333C9.25 15.2476 9.58579 15.5833 10 15.5833C10.4142 15.5833 10.75 15.2476 10.75 14.8333V11.5H14.3301L10 4Z"/>
</mask>
<path fill-rule="evenodd" clip-rule="evenodd" d="M10 20C15.5228 20 20 15.5228 20 10C20 4.47715 15.5228 0 10 0C4.47715 0 0 4.47715 0 10C0 15.5228 4.47715 20 10 20ZM10 4L5.66987 11.5H9.25V14.8333C9.25 15.2476 9.58579 15.5833 10 15.5833C10.4142 15.5833 10.75 15.2476 10.75 14.8333V11.5H14.3301L10 4Z" fill="#7C7C8A"/>
<path d="M5.66987 11.5L4.37083 10.75L3.0718 13H5.66987V11.5ZM10 4L11.299 3.25L10 1L8.70096 3.25L10 4ZM9.25 11.5H10.75V10H9.25V11.5ZM10.75 11.5V10H9.25V11.5H10.75ZM14.3301 11.5V13H16.9282L15.6292 10.75L14.3301 11.5ZM18.5 10C18.5 14.6944 14.6944 18.5 10 18.5V21.5C16.3513 21.5 21.5 16.3513 21.5 10H18.5ZM10 1.5C14.6944 1.5 18.5 5.30558 18.5 10H21.5C21.5 3.64873 16.3513 -1.5 10 -1.5V1.5ZM1.5 10C1.5 5.30558 5.30558 1.5 10 1.5V-1.5C3.64873 -1.5 -1.5 3.64873 -1.5 10H1.5ZM10 18.5C5.30558 18.5 1.5 14.6944 1.5 10H-1.5C-1.5 16.3513 3.64873 21.5 10 21.5V18.5ZM6.96891 12.25L11.299 4.75L8.70096 3.25L4.37083 10.75L6.96891 12.25ZM9.25 10H5.66987V13H9.25V10ZM10.75 14.8333V11.5H7.75V14.8333H10.75ZM10 14.0833C10.4142 14.0833 10.75 14.4191 10.75 14.8333H7.75C7.75 16.076 8.75736 17.0833 10 17.0833V14.0833ZM9.25 14.8333C9.25 14.4191 9.58579 14.0833 10 14.0833V17.0833C11.2426 17.0833 12.25 16.076 12.25 14.8333H9.25ZM9.25 11.5V14.8333H12.25V11.5H9.25ZM14.3301 10H10.75V13H14.3301V10ZM8.70096 4.75L13.0311 12.25L15.6292 10.75L11.299 3.25L8.70096 4.75Z" fill="#7C7C8A" mask="url(#path-1-inside-1_480_1933)"/>
</svg>
