<svg width="44" height="44" viewBox="0 0 44 44" fill="none" xmlns="http://www.w3.org/2000/svg">
<path fill-rule="evenodd" clip-rule="evenodd" d="M18.1573 25.2238C17.4684 25.4041 16.7454 25.5 16 25.5C11.3056 25.5 7.5 21.6944 7.5 17C7.5 12.3056 11.3056 8.5 16 8.5C20.6944 8.5 24.5 12.3056 24.5 17C24.5 17.2148 24.492 17.4277 24.4764 17.6385C24.9664 17.4539 25.4748 17.3068 25.998 17.2004C25.9993 17.1338 26 17.067 26 17C26 11.4772 21.5228 7 16 7C10.4772 7 6 11.4772 6 17C6 22.5228 10.4772 27 16 27C16.6856 27 17.3551 26.931 18.002 26.7996C18.0125 26.2629 18.0654 25.7366 18.1573 25.2238Z" fill="white"/>
<circle cx="28" cy="27" r="9.25" stroke="white" stroke-width="1.5"/>
<path d="M27.25 32C27.25 32.4142 27.5858 32.75 28 32.75C28.4142 32.75 28.75 32.4142 28.75 32H27.25ZM28.5303 21.4697C28.2374 21.1768 27.7626 21.1768 27.4697 21.4697L22.6967 26.2426C22.4038 26.5355 22.4038 27.0104 22.6967 27.3033C22.9896 27.5962 23.4645 27.5962 23.7574 27.3033L28 23.0607L32.2426 27.3033C32.5355 27.5962 33.0104 27.5962 33.3033 27.3033C33.5962 27.0104 33.5962 26.5355 33.3033 26.2426L28.5303 21.4697ZM28.75 32L28.75 22H27.25L27.25 32H28.75Z" fill="white"/>
<path d="M16.75 12C16.75 11.5858 16.4142 11.25 16 11.25C15.5858 11.25 15.25 11.5858 15.25 12L16.75 12ZM15.4697 21.5303C15.7626 21.8232 16.2374 21.8232 16.5303 21.5303L21.3033 16.7574C21.5962 16.4645 21.5962 15.9896 21.3033 15.6967C21.0104 15.4038 20.5355 15.4038 20.2426 15.6967L16 19.9393L11.7574 15.6967C11.4645 15.4038 10.9896 15.4038 10.6967 15.6967C10.4038 15.9896 10.4038 16.4645 10.6967 16.7574L15.4697 21.5303ZM15.25 12L15.25 21L16.75 21L16.75 12L15.25 12Z" fill="white"/>
</svg>
