<?xml version="1.0" encoding="utf-8"?>
<!-- Generator: Adobe Illustrator 26.5.0, SVG Export Plug-In . SVG Version: 6.00 Build 0)  -->
<svg version="1.1" id="Layer_1" xmlns="http://www.w3.org/2000/svg" xmlns:xlink="http://www.w3.org/1999/xlink" x="0px" y="0px"
	 viewBox="0 0 110.86 143.2" style="enable-background:new 0 0 110.86 143.2;" xml:space="preserve">
<style type="text/css">
	.st0{fill-rule:evenodd;clip-rule:evenodd;fill:#5532B9;}
</style>
<path class="st0" d="M110.86,88V21.99L61.63,2.46L55.43,0l-6.2,2.46L0,21.99V88c0,0-1.01,26.2,28.22,40.82
	c1.03,0.52,2.06,1.04,3.08,1.55c8.58,4.35,16.82,8.78,24.13,12.83c7.31-4.05,15.55-8.47,24.13-12.83c1.02-0.52,2.05-1.04,3.08-1.55
	C111.87,114.2,110.86,88,110.86,88 M78.43,120.45l-3.17,1.59c-6.35,3.22-13.04,6.78-19.83,10.49c-6.8-3.71-13.48-7.26-19.83-10.48
	l-3.18-1.6C9.98,109.23,9.47,90.28,9.47,88.59c0-0.04,0-0.29,0-0.29s0-48.9,0-60.03c9.77-3.88,43.44-17.23,43.44-17.23
	s1.31-0.52,2.52-1c1.21,0.48,36.19,14.36,45.96,18.23c0,11.14,0,59.96,0,59.96s0,0.33,0,0.37
	C101.39,90.27,100.88,109.23,78.43,120.45z"/>
<polygon class="st0" points="30.32,78.38 30.52,78.48 55.33,90.74 80.55,78.28 55.53,115.75 "/>
<polygon class="st0" points="80.55,64.82 80.34,64.72 55.53,52.46 30.32,64.92 55.33,27.45 "/>
<polyline class="st0" points="55.43,59.04 30.36,71.45 55.43,83.86 80.5,71.45 55.43,59.04 "/>
</svg>
