<svg width="49" height="48" viewBox="0 0 49 48" fill="none" xmlns="http://www.w3.org/2000/svg">
<g clip-path="url(#clip0_280_6)">
<path d="M24.5 48C37.7548 48 48.5 37.2548 48.5 24C48.5 10.7452 37.7548 0 24.5 0C11.2452 0 0.5 10.7452 0.5 24C0.5 37.2548 11.2452 48 24.5 48Z" fill="#5532B9"/>
<path fill-rule="evenodd" clip-rule="evenodd" d="M34.6074 27.948C33.4813 27.2832 32.0297 26.5235 30.7001 27.0661C29.6826 27.4867 29.0314 29.0741 28.3802 29.8745C28.041 30.2951 27.634 30.3494 27.1184 30.1458C23.3061 28.6263 20.3892 26.0893 18.2863 22.589C17.9336 22.0464 17.9878 21.6122 18.422 21.1102C19.0596 20.3641 19.8601 19.5093 20.0229 18.5054C20.1993 17.5014 19.7244 16.3211 19.3038 15.4257C18.7747 14.286 18.1778 12.6444 17.0246 11.9932C15.9664 11.3963 14.5825 11.7354 13.6328 12.4952C12.0048 13.8112 11.2315 15.8869 11.245 17.9356C11.245 18.5189 11.3265 19.1023 11.4621 19.6586C11.7877 21.0153 12.4118 22.277 13.1173 23.4845C13.6464 24.3934 14.2298 25.2753 14.8539 26.1165C16.8889 28.8841 19.4259 31.2855 22.3564 33.0899C23.8216 33.9853 25.409 34.7722 27.037 35.3149C28.8686 35.9254 30.5102 36.5495 32.4909 36.1696C34.5667 35.7761 36.6153 34.4873 37.4293 32.4929C37.6735 31.896 37.7956 31.2448 37.66 30.6207C37.3751 29.3318 35.6249 28.5585 34.5803 27.9344L34.6074 27.948Z" fill="#EBEBEB"/>
</g>
<defs>
<clipPath id="clip0_280_6">
<rect width="48" height="48" fill="white" transform="translate(0.5)"/>
</clipPath>
</defs>
</svg>
