<svg width="49" height="48" viewBox="0 0 49 48" fill="none" xmlns="http://www.w3.org/2000/svg">
<g clip-path="url(#clip0_280_10)">
<path d="M24.5 48C37.7548 48 48.5 37.2548 48.5 24C48.5 10.7452 37.7548 0 24.5 0C11.2452 0 0.5 10.7452 0.5 24C0.5 37.2548 11.2452 48 24.5 48Z" fill="#5532B9"/>
<path d="M37.7686 15.7784C36.941 16.1583 36.0184 16.3889 35.123 16.5382C35.5436 16.4703 36.1677 15.697 36.4254 15.385C36.8053 14.9101 37.1309 14.3675 37.3073 13.7841C37.3344 13.7434 37.348 13.6755 37.3073 13.6484C37.253 13.6213 37.2123 13.6484 37.1716 13.6484C36.1677 14.1911 35.1366 14.571 34.0377 14.8559C33.9427 14.883 33.8748 14.8559 33.8206 14.8016C33.7256 14.6931 33.6442 14.5981 33.5492 14.5167C33.088 14.1232 32.586 13.8112 32.0297 13.5806C31.2971 13.2821 30.4967 13.16 29.6962 13.2007C28.9229 13.255 28.1631 13.472 27.4848 13.8248C26.7929 14.1775 26.1824 14.6795 25.694 15.2764C25.192 15.9005 24.8121 16.6331 24.6222 17.4065C24.4322 18.1526 24.4594 18.8988 24.5679 19.6586C24.5815 19.7807 24.5679 19.8078 24.4594 19.7807C20.1451 19.143 16.5769 17.5964 13.6736 14.286C13.5515 14.1368 13.4837 14.1368 13.3751 14.286C12.0998 16.1854 12.7239 19.2516 14.3113 20.7439C14.5283 20.9474 14.7454 21.1509 14.976 21.3273C14.8946 21.3409 13.8364 21.2323 12.9003 20.7439C12.7782 20.6625 12.7103 20.7032 12.6968 20.8525C12.6968 21.056 12.6968 21.2459 12.7375 21.4766C12.9817 23.4031 14.3113 25.1939 16.1428 25.8858C16.3599 25.9808 16.6041 26.0622 16.8347 26.1029C16.4141 26.1979 15.9936 26.2657 14.7997 26.1707C14.6504 26.1436 14.5962 26.2114 14.6504 26.3607C15.5458 28.8027 17.4859 29.5353 18.9376 29.9559C19.1275 29.9831 19.331 29.9831 19.521 30.0373C19.521 30.0509 19.4938 30.0509 19.4803 30.078C19.0054 30.8106 17.3231 31.3533 16.5498 31.6247C15.1388 32.1131 13.5922 32.3437 12.0998 32.1945C11.8556 32.1538 11.8149 32.1673 11.7471 32.1945C11.6793 32.2352 11.7471 32.2894 11.8149 32.3573C12.1134 32.5608 12.4254 32.7372 12.7375 32.9C13.6872 33.4019 14.6776 33.8089 15.7087 34.0938C21.054 35.5726 27.0778 34.4873 31.08 30.4986C34.2276 27.3646 35.3401 23.0503 35.3401 18.7225C35.3401 18.5597 35.5436 18.4647 35.6521 18.3697C36.4661 17.7592 37.1309 17.013 37.7414 16.199C37.8771 16.0091 37.8771 15.8463 37.8771 15.7784V15.7513C37.8771 15.6834 37.8771 15.697 37.7686 15.7513V15.7784Z" fill="#EBEBEB"/>
</g>
<defs>
<clipPath id="clip0_280_10">
<rect width="48" height="48" fill="white" transform="translate(0.5)"/>
</clipPath>
</defs>
</svg>
