<svg width="48" height="48" viewBox="0 0 48 48" fill="none" xmlns="http://www.w3.org/2000/svg">
<g clip-path="url(#clip0_280_29)">
<path d="M24 48C37.2548 48 48 37.2548 48 24C48 10.7452 37.2548 0 24 0C10.7452 0 0 10.7452 0 24C0 37.2548 10.7452 48 24 48Z" fill="#5532B9"/>
<path d="M12.3596 13.7569L21.87 24.5427C22.4127 25.1532 23.186 25.5059 24.0136 25.5059C24.8412 25.5059 25.6145 25.1532 26.1572 24.5427L35.5048 13.9333C35.5862 13.8519 35.6677 13.7841 35.7762 13.7298C35.3827 13.5534 34.9486 13.4585 34.4873 13.4585H13.5399C13.1057 13.4585 12.6852 13.5534 12.3053 13.7027C12.3189 13.7162 12.3324 13.7298 12.3596 13.7434V13.7569Z" fill="#EBEBEB"/>
<path d="M37.1871 14.978C37.1464 15.0865 37.0921 15.195 37.0107 15.29L27.6631 25.8994C26.7405 26.944 25.3974 27.5546 24 27.5546C22.6026 27.5546 21.2595 26.9576 20.3369 25.8994L10.8265 15.1136C10.8265 15.1136 10.7993 15.0729 10.7722 15.0458C10.4737 15.5342 10.3109 16.104 10.3109 16.7145V31.3262C10.3109 33.1035 11.7626 34.5551 13.5399 34.5551H34.4466C36.2239 34.5551 37.6755 33.1035 37.6755 31.3262V16.701C37.6755 16.0633 37.4856 15.4799 37.1735 14.9915L37.1871 14.978Z" fill="#EBEBEB"/>
</g>
<defs>
<clipPath id="clip0_280_29">
<rect width="48" height="48" fill="white"/>
</clipPath>
</defs>
</svg>
