<svg width="36" height="36" viewBox="0 0 36 36" fill="none" xmlns="http://www.w3.org/2000/svg">
<g clip-path="url(#clip0_1_15)">
<path d="M18 36C27.9411 36 36 27.9411 36 18C36 8.05887 27.9411 0 18 0C8.05887 0 0 8.05887 0 18C0 27.9411 8.05887 36 18 36Z" fill="#C3A634"/>
<path fill-rule="evenodd" clip-rule="evenodd" d="M14.904 16.4362H19.7573V19.008H14.904V24.4283H17.9651C19.1767 24.4283 20.1679 24.2651 20.9396 23.9366C21.7114 23.6093 22.3166 23.1559 22.7565 22.5754C23.2064 21.9717 23.5127 21.2734 23.652 20.5335C23.8145 19.6989 23.8937 18.8502 23.8882 18C23.8937 17.1498 23.8145 16.3011 23.652 15.4665C23.5128 14.7266 23.2065 14.0282 22.7565 13.4246C22.3166 12.8441 21.7103 12.3907 20.9396 12.0634C20.1679 11.7349 19.1767 11.5718 17.9651 11.5718H14.904V16.4374V16.4362ZM11.7923 19.008H10.125V16.4374H11.7923V9H19.1599C20.5211 9 21.699 9.23625 22.6946 9.70537C23.6903 10.1767 24.5025 10.8191 25.1336 11.6348C25.7636 12.4492 26.2327 13.4033 26.5399 14.4956C26.847 15.588 27 16.7569 27 18C27.0077 19.1838 26.8525 20.3629 26.5388 21.5044C26.2328 22.5956 25.7636 23.5508 25.1325 24.3653C24.5025 25.1809 23.6903 25.8232 22.6946 26.2946C21.699 26.7649 20.52 27 19.1599 27H11.7923V19.008Z" fill="white"/>
</g>
<defs>
<clipPath id="clip0_1_15">
<rect width="36" height="36" fill="white"/>
</clipPath>
</defs>
</svg>
