<svg width="44" height="44" viewBox="0 0 44 44" fill="none" xmlns="http://www.w3.org/2000/svg">
<path fill-rule="evenodd" clip-rule="evenodd" d="M13.9814 21.7429L13.9814 18.7747L7.72236 24.7132L13.9814 30.0578L13.9814 27.3565C13.9814 26.7766 14.4515 26.3065 15.0314 26.3065L24.5726 26.3065C24.9868 26.3065 25.3226 26.6423 25.3226 27.0565C25.3226 27.4707 24.9868 27.8065 24.5726 27.8065L15.4814 27.8065V31.0338C15.4814 31.9299 14.4311 32.4142 13.7496 31.8323L6.36817 25.5293C5.89408 25.1245 5.87506 24.3982 6.32731 23.9691L13.7087 16.9658C14.3777 16.331 15.4814 16.8053 15.4814 17.7275V21.2929L27.1399 21.2929L28.9792 21.2929C29.5591 21.2929 30.0292 21.763 30.0292 22.3429V25.3111L36.2883 19.3726L30.0292 14.028V16.7293C30.0292 17.3092 29.5591 17.7793 28.9792 17.7793H19.438C19.0238 17.7793 18.688 17.4435 18.688 17.0293C18.688 16.6151 19.0238 16.2793 19.438 16.2793H28.5292V13.052C28.5292 12.1559 29.5796 11.6716 30.2611 12.2535L37.6425 18.5565C38.1166 18.9613 38.1356 19.6876 37.6834 20.1167L30.3019 27.12C29.6329 27.7548 28.5292 27.2805 28.5292 26.3583V22.7929H16.8708C16.8701 22.7929 16.8693 22.7929 16.8686 22.7929H15.0314C14.4515 22.7929 13.9814 22.3228 13.9814 21.7429Z" fill="white"/>
</svg>
