<svg width="23" height="16" viewBox="0 0 23 16" fill="none" xmlns="http://www.w3.org/2000/svg">
<path fill-rule="evenodd" clip-rule="evenodd" d="M4 0C1.79086 0 0 1.79086 0 4V12C0 14.2091 1.79086 16 4 16H16.5556C18.2026 16 19.6172 15.0045 20.2304 13.5824C19.9655 13.6376 19.691 13.6667 19.4097 13.6667H13.2778C11.0686 13.6667 9.27777 11.8758 9.27777 9.66668V6.33334C9.27777 4.1242 11.0686 2.33334 13.2778 2.33334H19.4097C19.691 2.33334 19.9655 2.36238 20.2304 2.41761C19.6172 0.995487 18.2026 0 16.5556 0H4Z" fill="white"/>
<path fill-rule="evenodd" clip-rule="evenodd" d="M13.5625 3.66666C11.9056 3.66666 10.5625 5.0098 10.5625 6.66666V9.33332C10.5625 10.9902 11.9056 12.3333 13.5625 12.3333H19.125C20.7819 12.3333 22.125 10.9902 22.125 9.33332V6.66666C22.125 5.0098 20.7819 3.66666 19.125 3.66666H13.5625ZM14.6222 9.6C15.5304 9.6 16.2667 8.88366 16.2667 8C16.2667 7.11634 15.5304 6.4 14.6222 6.4C13.714 6.4 12.9778 7.11634 12.9778 8C12.9778 8.88366 13.714 9.6 14.6222 9.6Z" fill="white"/>
</svg>
