<svg width="12" height="12" viewBox="0 0 12 12" fill="none" xmlns="http://www.w3.org/2000/svg">
<path fill-rule="evenodd" clip-rule="evenodd" d="M1.61633 0.257548C1.27294 -0.0858493 0.71618 -0.0858493 0.372782 0.257548C0.0293849 0.600945 0.0293852 1.1577 0.372782 1.5011L4.78771 5.91603L0.43528 10.2685C0.0918825 10.6119 0.0918825 11.1686 0.43528 11.512C0.778677 11.8554 1.33543 11.8554 1.67883 11.512L6.03126 7.15958L10.3212 11.4495C10.6646 11.7929 11.2214 11.7929 11.5647 11.4495C11.9081 11.1061 11.9081 10.5494 11.5647 10.206L7.27481 5.91603L11.6272 1.56359C11.9706 1.22019 11.9706 0.663436 11.6272 0.320039C11.2838 -0.0233583 10.7271 -0.023358 10.3837 0.320039L6.03126 4.67247L1.61633 0.257548Z" fill="#D9D9D9"/>
</svg>
