<svg width="20" height="20" viewBox="0 0 20 20" fill="none" xmlns="http://www.w3.org/2000/svg">
<path fill-rule="evenodd" clip-rule="evenodd" d="M14.1545 8.57724C14.1545 11.6575 11.6575 14.1545 8.57726 14.1545C5.49702 14.1545 3 11.6575 3 8.57724C3 5.49702 5.49702 3 8.57726 3C11.6575 3 14.1545 5.49702 14.1545 8.57724ZM13.5606 15.5592C12.156 16.5635 10.4356 17.1545 8.57726 17.1545C3.84017 17.1545 0 13.3143 0 8.57724C0 3.84016 3.84017 0 8.57726 0C13.3143 0 17.1545 3.84016 17.1545 8.57724C17.1545 10.4356 16.5635 12.156 15.5592 13.5605L19.5861 17.5875C20.138 18.1394 20.138 19.0342 19.5861 19.5861C19.0342 20.138 18.1394 20.138 17.5875 19.5861L13.5606 15.5592Z" fill="#5532B9"/>
</svg>
