<?xml version="1.0" standalone="no"?>
<!DOCTYPE svg PUBLIC "-//W3C//DTD SVG 20010904//EN"
 "http://www.w3.org/TR/2001/REC-SVG-20010904/DTD/svg10.dtd">
<svg version="1.0" xmlns="http://www.w3.org/2000/svg"
 width="689.000000pt" height="689.000000pt" viewBox="0 0 689.000000 689.000000"
 preserveAspectRatio="xMidYMid meet">
<metadata>
Created by potrace 1.14, written by Peter Selinger 2001-2017
</metadata>
<g transform="translate(0.000000,689.000000) scale(0.100000,-0.100000)"
fill="#000000" stroke="none">
<path d="M3385 6869 c-27 -12 -59 -25 -70 -30 -11 -5 -209 -83 -440 -175 -426
-168 -765 -302 -1290 -511 -159 -63 -353 -140 -430 -170 -77 -30 -153 -61
-170 -68 -16 -7 -69 -28 -117 -46 -83 -32 -88 -36 -89 -64 0 -16 0 -748 -1
-1625 0 -1433 3 -1688 17 -1740 2 -8 7 -35 10 -60 12 -86 73 -317 95 -359 5
-9 18 -43 31 -76 26 -69 126 -267 172 -341 170 -268 410 -513 692 -706 140
-95 149 -100 740 -403 127 -65 235 -121 240 -125 6 -4 60 -33 120 -65 135 -71
198 -105 393 -212 l153 -84 52 29 c29 16 88 49 132 72 44 24 85 46 90 50 6 4
55 31 110 60 55 29 127 67 160 85 142 77 229 122 511 266 345 176 472 246 604
337 441 302 755 715 909 1192 31 96 65 240 75 318 3 23 9 61 13 85 7 48 11
3315 3 3326 -3 5 -153 67 -335 139 -181 72 -495 196 -697 276 -203 80 -533
211 -735 291 -203 80 -377 150 -388 155 -21 10 -505 200 -508 200 -1 -1 -24
-10 -52 -21z m441 -615 c203 -80 443 -175 534 -210 91 -36 174 -69 185 -74 11
-5 56 -23 100 -40 44 -17 89 -35 100 -40 11 -5 198 -79 415 -165 217 -85 415
-164 440 -175 l45 -19 0 -1498 c0 -824 -4 -1520 -8 -1547 -31 -191 -88 -361
-180 -536 -149 -284 -418 -561 -727 -746 -47 -28 -200 -110 -340 -181 -140
-72 -284 -146 -320 -165 -36 -19 -114 -61 -175 -93 -218 -115 -338 -179 -411
-221 l-41 -24 -79 43 c-120 66 -226 123 -364 195 -69 35 -129 68 -135 72 -5 4
-145 76 -310 160 -370 189 -453 237 -605 352 -235 177 -426 406 -551 663 -79
163 -113 268 -155 475 -8 43 -14 3034 -5 3047 3 5 67 33 141 63 74 29 149 59
165 66 17 7 158 63 315 124 157 62 299 118 317 126 17 8 34 14 38 14 4 0 21 7
38 15 18 8 210 84 427 170 217 86 404 160 415 165 62 29 350 138 356 135 3 -3
172 -70 375 -151z"/>
<path d="M3414 5537 c-11 -18 -277 -417 -590 -887 -314 -470 -574 -860 -578
-867 -4 -7 107 44 246 114 388 193 931 459 947 465 8 2 150 -63 315 -145 166
-82 420 -208 566 -279 146 -72 278 -137 293 -145 28 -14 28 -14 17 7 -7 12
-44 70 -84 128 -40 59 -162 240 -271 402 -110 162 -271 401 -358 530 -87 129
-193 287 -235 350 -42 63 -79 117 -82 120 -3 3 -40 58 -83 123 -43 64 -79 117
-80 117 -1 -1 -11 -15 -23 -33z"/>
<path d="M3400 4035 c-14 -8 -281 -141 -594 -295 -313 -155 -567 -283 -565
-285 5 -4 535 -268 921 -459 l277 -136 268 133 c147 74 418 208 602 299 l333
164 -213 106 c-828 410 -988 488 -996 488 -4 0 -19 -7 -33 -15z"/>
<path d="M2271 3071 c19 -28 91 -135 161 -239 69 -103 198 -293 285 -422 87
-129 192 -284 233 -345 41 -60 80 -117 85 -127 6 -9 28 -43 50 -75 23 -32 101
-148 175 -258 74 -110 146 -217 161 -238 l28 -38 595 892 c328 491 594 895
591 897 -2 2 -30 -10 -62 -27 -32 -16 -300 -149 -596 -295 l-539 -266 -281
139 c-155 76 -421 208 -592 292 -170 85 -314 156 -319 158 -4 2 7 -20 25 -48z"/>
</g>
</svg>
