<svg xmlns="http://www.w3.org/2000/svg" xmlns:xlink="http://www.w3.org/1999/xlink" version="1.1" x="0px" y="0px" viewBox="0 0 1000 1000" enable-background="new 0 0 1000 1000" xml:space="preserve">
<metadata fill="#ffffff"> Svg Vector Icons : http://www.onlinewebfonts.com/icon </metadata>
<g><path d="M653.1,544.1c87.2-49,146.3-142,146.3-248.7C799.5,138,670.9,10,513,10c-158,0-286.5,128-286.5,285.5c0,102.6,54.8,192.5,136.5,242.8C178.2,596.3,43.7,768.7,43.7,971.8c0,6.1,0.7,12.1,0.9,18.2h63.7c-0.3-6.1-0.9-12.1-0.9-18.2c0-215.5,176.1-390.9,392.6-390.9c216.5,0,392.6,175.3,392.6,390.9c0,6.1-0.6,12.1-0.9,18.2h63.7c0.2-6.1,0.9-12.1,0.9-18.2C956.3,774.7,829.5,607,653.1,544.1z M290.1,295.5c0-122.3,100-221.8,222.8-221.8c122.9,0,222.8,99.5,222.8,221.8c0,122.3-99.9,221.8-222.8,221.8C390.1,517.2,290.1,417.8,290.1,295.5z" fill="#ffffff"/></g>
</svg>